<svg xmlns="http://www.w3.org/2000/svg" width="275" height="158" viewBox="-4 0 275 158" enable-background="new -4 0 275 158"><path fill="#010101" d="M4 95h255v12H4zM4 107h21v35H4zM238 107h21v35h-21z"/><path fill="#fff" stroke="#010101" stroke-width="5" stroke-miterlimit="10" d="M73.5 12.5h121v75h-121z"/><path fill="#fff" d="M118.02 143.886c-1.54-.956-2.23-1.965-2.072-3.022l3.343-4.22 13.374-.318 1.99 3.104c1.698 4.137-1.114 6.21-8.438 6.21-3.607-.003-6.34-.588-8.196-1.754z"/><path stroke="#010101" stroke-width="3.184" stroke-miterlimit="3" d="M118.02 143.886c1.855 1.166 4.59 1.75 8.195 1.75 7.325 0 10.137-2.07 8.438-6.208l-1.99-3.104-13.373.316-3.343 4.22c-.156 1.06.534 2.07 2.073 3.026z" fill="none"/><path fill="#fff" d="M153.835 140.86c.16 1.06-.505 2.07-1.99 3.024-1.91 1.166-4.643 1.75-8.194 1.75-7.216 0-10.056-2.07-8.517-6.208l2.067-3.104 13.292.317 1.593 1.51c1.115 1.172 1.697 2.075 1.75 2.71z"/><path stroke="#010101" stroke-width="3.184" stroke-miterlimit="3" d="M153.835 140.86c.16 1.06-.505 2.07-1.99 3.024-1.91 1.166-4.643 1.75-8.194 1.75-7.216 0-10.056-2.07-8.517-6.208l2.067-3.104 13.292.317 1.593 1.51c1.115 1.172 1.697 2.075 1.75 2.71z" fill="none"/><path fill="#fff" d="M134.336 99.712c-.48 0-.796 2.358-.957 7.082-.16 5.466-.237 8.224-.237 8.276-.215 1.062.29 7.854 1.51 20.378 1.27-12.523 1.803-19.314 1.592-20.378 0-10.238-.426-15.358-1.273-15.358h-.636zm13.69-7.326c.796 2.07 1.22 4.062 1.27 5.97.105 3.078-.316 8.356-1.27 15.842-.106 1.75 1.247 8.73 4.058 20.935.16.743-.873 1.67-3.104 2.786-2.28 1.11-4.537 1.774-6.767 1.988-2.176.16-4.007-.267-5.493-1.274-1.37-.95-2.06-1.97-2.068-3.066-.013 1.1-.7 2.117-2.07 3.066-1.486 1.008-3.315 1.434-5.49 1.274-2.23-.214-4.46-.9-6.686-2.07-2.177-1.166-3.184-2.147-3.025-2.944 2.758-11.676 4.086-18.388 3.98-20.14-.954-7.853-1.38-13.317-1.275-16.395.053-1.91.45-3.9 1.194-5.972l1.115-2.547h24.513l1.117 2.546z"/><path stroke="#010101" stroke-width="3.184" stroke-miterlimit="3" d="M134.336 99.712c-.48 0-.796 2.358-.957 7.082-.16 5.466-.237 8.224-.237 8.276-.215 1.062.29 7.854 1.51 20.378 1.27-12.523 1.803-19.314 1.592-20.378 0-10.238-.426-15.358-1.273-15.358h-.636zm13.69-7.326c.796 2.07 1.22 4.062 1.27 5.97.105 3.078-.316 8.356-1.27 15.842-.106 1.75 1.247 8.73 4.058 20.935.16.743-.873 1.67-3.104 2.786-2.28 1.11-4.537 1.774-6.767 1.988-2.176.16-4.007-.267-5.493-1.274-1.37-.95-2.06-1.97-2.068-3.066-.013 1.1-.7 2.117-2.07 3.066-1.486 1.008-3.315 1.434-5.49 1.274-2.23-.214-4.46-.9-6.686-2.07-2.177-1.166-3.184-2.147-3.025-2.944 2.758-11.676 4.086-18.388 3.98-20.14-.954-7.853-1.38-13.317-1.275-16.395.053-1.91.45-3.9 1.194-5.972l1.115-2.547h24.513l1.117 2.546zm-13.372 43.062v.116" fill="none"/><path fill="#fff" stroke="#010101" stroke-width="2" stroke-miterlimit="3" d="M159.076 97.905c-2.866-8.278-4.654-11.056-5.72-13.284-1.005-2.33-3.225-4.6-7.573-6.242L139 76.626V73h-11v3.895c-2 .38-3.715.975-5.906 1.802-4.775 1.75-6.006 4.508-6.855 7 0 0-8.007 14.813-8.032 18.99-.024 4.18 6.87 6.55 9.36 3.02 2.206-3.137 4.202-15.852 5.053-16.593.69-.584 1.238 2.096 1.66 8.038.48 5.892.235 9.34-.72 10.348-.9.958.343 3.06 3.74 3.587 2.6.427 5.328 1.914 8.195 1.914h.158c2.863 0 5.596-1.486 8.2-1.913 3.395-.528 4.642-1.95 3.74-2.907-.954-1.008-1.194-4.796-.72-10.687.426-5.943.982-8.793 1.673-8.21.85.742 2.08 20.25 7.583 20.117 6.706-.162 6.77-5.23 3.946-13.495z"/><path fill="#fff" stroke="#010101" stroke-width="3.184" stroke-miterlimit="10" d="M147.547 91.113c-.69-.584-1.247 2.096-1.672 8.037-.477 5.893 4.23 17.16 5.184 18.168.9.957-10.09 3.974-16.326 4.115-6.236.143-16.515-2.287-16.024-3.617.902-2.85 5.04-12.773 4.56-18.666-.42-5.94-.98-8.62-1.668-8.037-.596-1.22 1.216-5.795.18-12.417 2.388-.9 2.094-.858 4.323-1.232 0 0 1.238 9.22 8.5 9.126 7.26-.093 7.395-8.832 7.395-8.832l4.438.62c-.858 9.43 1.906 11.32 1.11 12.735z"/><path fill="#010101" d="M102.347 17.168c-3.555 4.936-6.206 11.967-7.96 21.093-1.856 9.34-1.775 16.054.24 20.14 1.803 3.66 2.494 8.17 2.07 13.53-.373 4.404-1.14 7.51-2.31 9.312-1.166 1.803-1.937 1.433-2.307-1.113-1.274 2.492-.556 3.95 2.148 4.376 1.433.266 2.336 0 2.708-.796l.16-1.274c.637 1.646 7.76 14.94 29.21 14.965 42.61-.796 35.737-20.506 41.307-45.128 2.656-11.675 1.246-21.57-4.22-29.69-3.87-5.784-9.26-10.16-16.154-13.133-6.69-2.76-11.835-2.813-15.443-.16-2.226-2.653-6.79-3.184-13.69-1.592-7.164 1.698-12.415 4.855-15.76 9.47zM174.02 66.757c-.048.762-.407 1.372-1.075 1.832-.795.634-1.695.766-2.705.396-2.65-1.062-3.395-4.513-2.23-10.348 2.92-14.805 1.697-25.92-3.657-33.35-2.656-3.715-5.602-5.97-8.838-6.766 8.438 12.47 12.524 22.232 12.256 29.29-.103 3.557-.58 8.86-1.43 15.92-.32 5.358.61 8.196 2.787 8.515 3.383.507 5.018-1.323 4.894-5.49z"/><path stroke="#010101" stroke-width="3.184" stroke-miterlimit="3" d="M101.712 41.047c0-7.533 2.916-13.954 8.755-19.26 5.835-5.36 12.894-8.04 21.17-8.04 8.118 0 15.017 2.546 20.695 7.642 5.677 5.093 8.73 11.353 9.152 18.783.105 1.062-.24 4.883-1.034 11.46-.796 6.688-1.378 10.667-1.75 11.942-.69 2.23-3.718 4.67-9.073 7.32-5.893 2.92-11.887 4.458-17.99 4.62-6.1-.162-12.18-1.62-18.068-4.538-5.36-2.654-8.386-5.094-9.073-7.324-.373-1.167-.93-5.042-1.672-11.62-.743-6.263-1.113-9.924-1.113-10.986z" fill="none"/><path fill="#010101" d="M99.243 41.287c-.532 3.343 1.91 5.016 7.322 5.016 3.396 0 6.82-4.565 10.27-13.692l4.138-13.688c-.373 2.333.98 4.377 4.058 6.128-1.802-3.98-1.484-6.473.96-7.482 1.535-.636 2.996-.662 4.374-.08l1.592 1.037c2.708-1.273 5.147-1.407 7.326-.398 2.226 1.062 4.004 3.556 5.33 7.482 1.804 5.093 2.097 11.274.874 18.545 3.82-5.786 4.46-13.558 1.912-23.322 1.752.53 3.53 2.016 5.332 4.458 3.56 4.935 5.49 12.26 5.812 21.97.316 9.71-.743 17.615-3.186 23.72-1.223 3.077-2.47 5.173-3.738 6.286 1.855-1.166 3.793-3.236 5.808-6.207 3.98-5.892 6.26-13.19 6.847-21.89l-7.96-29.69-12.577-7.083-13.688-2.07-11.94 2.866-4.057 4.696-9.314 5.014-4.614 9.79-5.096 6.607c-1.166 2.07-.9 8.17.796 18.307L99.724 59c-1.18-.918-2.186-2.495-3.025-4.733-1.117-2.974-1.674-6.022-1.674-9.153 0-1.912.69-3.13 2.07-3.664l2.147-.163z"/><path stroke="#010101" stroke-width="1.592" stroke-miterlimit="3" d="M138.873 66.836c0 2.175-1.673 3.263-5.015 3.263-3.396 0-5.094-1.09-5.094-3.264" fill="none"/><g stroke="#010101" stroke-miterlimit="10"><circle fill="#fff" stroke-width="1.92" cx="133.739" cy="147.348" r="4.234"/><path fill="#fff" stroke-width="4" d="M130 119h7v27h-7z"/><path fill="#010101" stroke-width="4" d="M164 124.827c0 2.856-2.316 5.173-5.173 5.173h-47.654c-2.857 0-5.173-2.316-5.173-5.173v-.654c0-2.856 2.316-5.173 5.173-5.173h47.654c2.856 0 5.173 2.316 5.173 5.173v.654z"/><path fill="#010101" stroke-width="2" d="M154 94.916c0 3.912-3.172 7.084-7.084 7.084h-27.832c-3.913 0-7.084-3.172-7.084-7.084V84.084c0-3.912 3.17-7.084 7.084-7.084h27.832c3.912 0 7.084 3.172 7.084 7.084v10.832z"/><path fill="#fff" stroke-width="4" d="M130 94h7v28h-7zM114 144h42v4h-42z"/><circle fill="#fff" stroke-width="3.184" cx="113.842" cy="147.203" r="5.572"/><circle fill="#fff" stroke-width="3.184" cx="155.23" cy="147.203" r="5.571"/></g><g fill="#fff" stroke="#000" stroke-width="2" stroke-miterlimit="10"><path d="M1 89.5h65.667V95H1zM3 83.5h65.667V89H3zM.5 75h69.167v8H.5zM.5 69.333h64V75H.5zM-1.5 61.5h70.167V69H-1.5zM2 57.25h59.667V61H2zM.5 53.25h66.167V57H.5zM3 46.167h65.667V53H3zM-2.667 41H66v5H-2.667zM-.667 33.667H68V41H-.667zM203 89h62.666v6H203zM201 84.667h62.666V89H201zM203 80.667h62.666V85H203zM199.5 73h68v8h-68zM202 68.468h57V73h-57zM202 61.5h63V68h-63zM205.832 57h61v4h-61zM203 50h62.666v7H203zM201 44.63h66.5V50H201zM204.332 35.333h64.5V45h-64.5z"/></g></svg>