<svg xmlns="http://www.w3.org/2000/svg" xmlns:xlink="http://www.w3.org/1999/xlink" width="137.75" height="65" viewBox="0 0 137.75 65"><defs><circle id="a" cx="34.315" cy="32.706" r="28.693"/></defs><clipPath id="b"><use xlink:href="#a" overflow="visible"/></clipPath><g clip-path="url(#b)"><path fill-rule="evenodd" clip-rule="evenodd" fill="#010101" d="M75.143 12.838c2.65 3.677 4.625 8.916 5.93 15.714 1.384 6.958 1.324 11.96-.178 15.003-1.344 2.728-1.857 6.087-1.54 10.08.275 3.282.85 5.595 1.72 6.94.87 1.344 1.442 1.067 1.72-.83.947 1.857.414 2.944-1.603 3.26-1.067.198-1.74 0-2.017-.592l-.118-.95c-.475 1.225-5.78 11.13-21.763 11.15-31.746-.593-26.626-15.28-30.777-33.622-1.977-8.697-.93-16.07 3.144-22.12 2.886-4.308 6.9-7.57 12.038-9.783 4.98-2.056 8.815-2.095 11.504-.12 1.66-1.976 5.06-2.372 10.2-1.186 5.336 1.267 9.25 3.62 11.74 7.058zM21.743 49.783c.037.567.303 1.022.8 1.364.594.474 1.266.572 2.016.296 1.976-.79 2.53-3.36 1.66-7.71-2.175-11.03-1.265-19.31 2.728-24.846 1.977-2.767 4.17-4.448 6.582-5.04-6.286 9.29-9.33 16.562-9.13 21.82.078 2.65.434 6.603 1.066 11.86.237 3.995-.455 6.11-2.076 6.347-2.52.377-3.736-.987-3.647-4.09z"/><path fill-rule="evenodd" clip-rule="evenodd" fill="#fff" d="M49.644 58.915v-5.1h8.48v5.1c-1.028.513-2.452.752-4.27.71l-4.21-.71z"/><path clip-rule="evenodd" stroke="#010101" stroke-width="2.372" stroke-miterlimit="3" d="M49.644 58.915v-5.1h8.48v5.1c-1.028.513-2.452.752-4.27.71l-4.21-.71z" fill="none"/><path fill="#fff" stroke="#010101" stroke-width="1.186" stroke-miterlimit="10" d="M80.36 35.372c.634 1.543.238 3.54-1.186 5.99-1.502 2.57-3.242 3.696-5.218 3.38l1.186-9.844.238-.534 2.075-.534c1.464-.118 2.432.396 2.905 1.542z"/><path fill-rule="evenodd" clip-rule="evenodd" fill="#fff" d="M75.617 30.628c0 .79-.277 3.52-.83 8.184-.553 4.902-.97 7.788-1.246 8.658-.512 1.66-2.766 3.48-6.758 5.456-4.39 2.174-8.856 3.32-13.402 3.44l-.06-.06c-4.546-.118-9.013-1.265-13.4-3.44-3.994-1.976-6.248-3.794-6.762-5.455-.277-.948-.71-3.913-1.304-8.894-.593-4.9-.85-7.75-.77-8.54.315-5.535 2.588-10.2 6.818-13.994 4.23-3.795 9.37-5.693 15.418-5.693 6.167 0 11.426 1.995 15.773 5.988 4.35 3.954 6.524 8.738 6.524 14.35z"/><path clip-rule="evenodd" stroke="#010101" stroke-width="2.372" stroke-miterlimit="3" d="M75.617 30.628c0-5.613-2.175-10.396-6.523-14.35-4.348-3.994-9.606-5.99-15.773-5.99-6.047 0-11.187 1.898-15.417 5.694-4.23 3.795-6.503 8.46-6.82 13.994-.078.79.18 3.638.772 8.54.593 4.98 1.027 7.946 1.304 8.895.513 1.662 2.767 3.48 6.76 5.456 4.388 2.175 8.855 3.322 13.4 3.44l.06.06c4.547-.12 9.014-1.266 13.403-3.44 3.992-1.977 6.246-3.795 6.76-5.456.276-.87.692-3.756 1.245-8.658.552-4.665.83-7.393.83-8.184z" fill="none"/><path fill-rule="evenodd" clip-rule="evenodd" fill="#010101" d="M77.456 30.807c.395 2.49-1.424 3.736-5.456 3.736-2.53 0-5.08-3.4-7.65-10.2l-3.083-10.2c.276 1.74-.73 3.263-3.024 4.567 1.343-2.965 1.107-4.823-.712-5.575-1.145-.474-2.232-.493-3.26-.06l-1.185.772c-2.018-.95-3.836-1.048-5.456-.296-1.66.792-2.986 2.65-3.975 5.575-1.343 3.794-1.56 8.4-.65 13.816-2.848-4.31-3.323-10.1-1.425-17.374-1.304.395-2.63 1.5-3.973 3.32-2.65 3.677-4.09 9.133-4.33 16.368-.236 7.234.554 13.125 2.372 17.67.91 2.294 1.838 3.855 2.787 4.685-1.384-.87-2.827-2.413-4.328-4.626-2.966-4.388-4.666-9.825-5.102-16.307l5.93-22.12 9.37-5.278 10.2-1.543L63.4 9.872l3.024 3.5 6.938 3.735 3.438 7.293 3.796 4.922c.87 1.542.67 6.087-.594 13.64L77.1 44c.878-.686 1.628-1.86 2.254-3.53.83-2.213 1.245-4.486 1.245-6.82 0-1.422-.516-2.332-1.543-2.728l-1.6-.117zM42.707 42.488c0-1.976.572-2.965 1.72-2.965s1.72.99 1.72 2.965c0 2.017-.574 3.025-1.72 3.025s-1.72-1.008-1.72-3.025zM59.843 42.488c0-1.976.574-2.965 1.72-2.965 1.186 0 1.778.99 1.778 2.965 0 2.017-.592 3.025-1.777 3.025-1.146 0-1.72-1.008-1.72-3.025z"/><path clip-rule="evenodd" stroke="#010101" stroke-width="1.186" stroke-miterlimit="3" d="M57.057 49.842c0 1.62-1.245 2.43-3.736 2.43-2.53 0-3.793-.81-3.793-2.43" fill="none"/><path fill-rule="evenodd" clip-rule="evenodd" fill="#F8BFD8" d="M34.878 45.69c0-1.145 1.265-1.72 3.795-1.72 2.49 0 3.736.576 3.736 1.72 0 1.147-1.248 1.72-3.737 1.72-2.53 0-3.795-.573-3.795-1.72zM67.85 43.97c2.49 0 3.735.576 3.735 1.72 0 1.147-1.245 1.72-3.736 1.72-2.49 0-3.736-.572-3.736-1.72 0-1.145 1.244-1.72 3.735-1.72z"/></g><circle clip-rule="evenodd" cx="34.315" cy="32.706" r="28.693" fill="none"/><circle clip-rule="evenodd" stroke="#010101" stroke-width="3.558" stroke-miterlimit="3" cx="34.315" cy="32.706" r="28.693" fill="none"/><g fill="#010101"><path d="M99.438 19.768c0 .292-.082.49-.245.6-.165.11-.354.164-.573.164-.292.037-.5-.1-.628-.41-.128-.307-.354-.698-.682-1.172l-1.146-1.583c-.69-.58-1.436-.872-2.236-.872-.8 0-1.628.264-2.48.79-.856.528-1.756 1.265-2.702 2.21V36.79c0 .364.164.645.49.845.328.2.69.382 1.092.545.4.165.765.337 1.09.52.33.18.492.436.492.762 0 .545-.345.82-1.036.82h-8.51c-.73 0-1.092-.274-1.092-.82 0-.327.163-.582.49-.763.328-.183.7-.355 1.12-.52.416-.163.79-.345 1.117-.545.326-.2.49-.463.49-.79V17.366c0-.4-.164-.662-.49-.79-.328-.127-.702-.22-1.12-.273-.418-.055-.79-.118-1.118-.19-.327-.074-.49-.274-.49-.6 0-.256.153-.5.463-.738s.69-.437 1.146-.6c.455-.165.928-.29 1.42-.382.49-.09.917-.137 1.28-.137h2.074c.727 0 1.09.346 1.09 1.037v2.673c1.02-1.272 2.093-2.253 3.22-2.945 1.127-.69 2.328-1.037 3.6-1.037.766 0 1.856.254 3.275.763l.544 5.346c0 .074.01.128.027.165.02.035.028.072.028.108zM112.64 39.462c0 .545-.345.82-1.036.82h-8.51c-.73 0-1.092-.274-1.092-.82 0-.4.163-.717.49-.954.328-.236.7-.454 1.12-.655.416-.2.79-.41 1.117-.627.326-.218.49-.527.49-.928V24.483c0-.4-.164-.663-.49-.79-.328-.127-.702-.22-1.12-.273-.418-.055-.79-.118-1.117-.19-.328-.074-.49-.274-.49-.6 0-.255.153-.5.462-.737.31-.236.69-.437 1.146-.6.455-.165.928-.29 1.42-.382.49-.09.917-.135 1.28-.135h2.074c.728 0 1.09.346 1.09 1.036v14.435c0 .4.165.72.492.956.328.237.69.464 1.09.682.4.22.766.446 1.092.682.33.235.492.536.492.898zm-3.164-23.98c0 1.382-.8 2.072-2.4 2.072-1.564 0-2.364-.71-2.4-2.128 0-1.418.8-2.127 2.4-2.127 1.6 0 2.4.728 2.4 2.18zM134.626 32.86c0 2.51-.8 4.384-2.4 5.62s-3.946 1.855-7.038 1.855c-1.273 0-2.61-.145-4.01-.437-1.4-.29-2.864-.782-4.392-1.473l-1.036-5.564c0-.58.437-.872 1.31-.872.51 0 .854.273 1.036.82l.818 2.398c.363.8.973 1.473 1.827 2.02.855.544 1.992.818 3.41.818 2.183 0 3.783-.51 4.802-1.528 1.018-1.018 1.527-2.292 1.527-3.818 0-1.855-2.31-3.62-6.93-5.293-4.583-1.673-6.873-4.236-6.873-7.692 0-2.073.772-3.683 2.318-4.83 1.545-1.145 3.736-1.718 6.574-1.718 1.09 0 2.217.12 3.38.354 1.165.236 2.33.627 3.493 1.172l1.036 5.565c0 .546-.348.818-1.037.818-.692 0-1.13-.253-1.31-.763l-.818-2.4c-.51-.8-1.083-1.455-1.72-1.964-.636-.51-1.5-.764-2.59-.764-1.747 0-3.048.382-3.9 1.145-.856.764-1.283 1.764-1.283 3 0 2.146 2.31 4.056 6.93 5.73 2.4.873 4.145 1.954 5.236 3.246s1.638 2.81 1.638 4.555zM73.776 48.16c0-.014-.022-.02-.064-.02-.058-.044-.114-.076-.17-.097-.058-.022-.122-.046-.193-.075-.2-.084-.368-.188-.502-.31-.136-.12-.203-.272-.203-.458.085-.142.178-.256.277-.34.1-.087.228-.13.385-.13l2.73-.02c.187 0 .347.04.48.126.137.086.204.23.204.428 0 .213-.092.37-.275.47-.186.1-.357.185-.514.256-.142.07-.275.138-.404.203-.13.064-.22.167-.278.31l-3.2 8.645h-1.005l-3.415-8.625c-.043-.127-.126-.23-.246-.31-.12-.077-.267-.152-.438-.223-.17-.072-.346-.156-.522-.257-.18-.098-.268-.256-.268-.47.03-.198.11-.337.245-.415.135-.08.288-.118.46-.118h3.33c.185 0 .344.04.48.118.134.078.202.217.202.416 0 .156-.075.288-.225.395-.15.105-.323.202-.522.287-.06.03-.115.053-.172.074-.057.023-.113.047-.17.076 0 .014-.016.02-.043.02 0 .016.004.03.01.044.008.015.01.036.01.063l2.094 5.508 1.922-5.57zM85.92 52.323h-5.824c.027 1.054.29 1.887.79 2.498.498.612 1.152.918 1.963.918.284 0 .608-.04.97-.117.363-.077.78-.202 1.25-.372.17 0 .338.03.5.095.164.065.246.204.246.417 0 .185-.127.362-.383.534-.257.17-.56.32-.908.448-.35.127-.7.232-1.057.31-.355.08-.633.117-.832.117-.74 0-1.41-.135-2.008-.406-.598-.27-1.11-.644-1.536-1.12-.427-.477-.755-1.04-.982-1.688-.228-.647-.342-1.355-.342-2.124 0-.74.114-1.433.343-2.082.23-.647.55-1.21.964-1.686.414-.476.91-.854 1.488-1.132.576-.277 1.223-.416 1.937-.416 1.367 0 2.385.47 3.048 1.408s.995 2.22.995 3.843c0 .186-.058.325-.17.417-.117.093-.267.14-.452.14zm-3.647-4.398c-.64 0-1.122.245-1.442.732-.318.488-.536 1.227-.65 2.216 0 .07.008.11.022.116.014.007.05.01.107.01h4.055c.07 0 .114-.003.13-.012.013-.007.02-.045.02-.116-.042-.55-.114-1.018-.213-1.4-.1-.38-.238-.685-.417-.91-.178-.228-.398-.39-.66-.49-.266-.097-.582-.147-.952-.147zM94.59 49.783c-.143.014-.253-.01-.33-.075-.08-.064-.133-.13-.16-.203-.03-.028-.05-.06-.065-.096-.014-.036-.035-.068-.063-.097-.014-.057-.057-.127-.13-.213l-.425-.555c-.214-.17-.44-.256-.684-.256-.47 0-1.054.32-1.75.96v6.34c0 .1.045.163.138.19.094.03.197.066.312.11.185.056.34.126.47.212.07.043.142.104.213.182.07.078.106.18.106.31 0 .198-.066.34-.202.425-.135.085-.295.127-.48.127h-3.33c-.17 0-.327-.042-.47-.128-.142-.085-.213-.228-.213-.427 0-.214.09-.366.268-.46.177-.09.352-.173.52-.244.116-.044.223-.08.322-.11.1-.027.15-.083.15-.17v-7.258c0-.085-.047-.124-.14-.117s-.183-.003-.267-.032c-.186 0-.35-.02-.49-.064-.087-.03-.17-.08-.246-.15-.08-.072-.118-.178-.118-.32 0-.128.068-.25.203-.363.135-.114.306-.213.513-.3.206-.085.42-.152.64-.202s.416-.075.588-.075h.81c.2 0 .367.053.502.16.136.107.203.268.203.48v.32c.712-.71 1.51-1.067 2.392-1.067.2 0 .42.03.66.086.243.056.535.148.877.275l.235 2.178v.022c0 .014.003.024.01.032.007.007.01.018.01.03 0 .214-.066.357-.202.43-.137.07-.26.106-.376.106zM101.87 61.31h-3.438c-.285 0-.588-.03-.907-.084-.32-.058-.62-.17-.896-.342-.28-.17-.507-.403-.685-.693-.178-.29-.268-.672-.268-1.143 0-.455.11-.843.33-1.163.223-.32.54-.6.95-.843.314-.17.563-.248.748-.234.186 0 .354.057.503.17.15.114.224.25.224.406 0 .113-.07.242-.214.384l-.3.3c-.1.113-.18.226-.244.34-.063.115-.097.242-.097.384 0 .214.104.402.31.566.206.164.523.246.95.246h3.032c.624 0 1.055-.085 1.29-.257.235-.17.353-.398.353-.682 0-.413-.17-.745-.513-.992-.342-.25-.86-.374-1.56-.374h-1.664c-1.024 0-1.81-.188-2.358-.565-.55-.376-.822-.993-.822-1.846 0-.668.2-1.182.604-1.537-.492-.327-.856-.75-1.09-1.27-.23-.52-.348-1.1-.348-1.74 0-1.21.392-2.143 1.175-2.797.782-.654 1.913-.982 3.395-.982.54 0 1.09.084 1.644.256l.3.106 2.07-.342c.24 0 .42.062.533.182.112.12.17.28.17.48 0 .413-.214.632-.642.662l-.47.15c.242.327.417.69.523 1.087s.16.782.16 1.15c0 1.155-.362 2.076-1.088 2.766-.726.69-1.83 1.036-3.31 1.036-.426 0-.882-.05-1.365-.15l-.128.107c-.044.028-.094.067-.15.117-.058.05-.1.096-.128.14-.03.056-.043.12-.043.19 0 .2.1.36.298.48.2.122.555.182 1.067.182h1.665c1.252 0 2.206.284 2.86.853.654.57.982 1.423.982 2.562 0 .925-.295 1.612-.886 2.06s-1.43.675-2.526.675zm-1.71-13.3c-.315 0-.646.064-.99.193-.273.113-.488.235-.646.362-.158.128-.28.278-.367.448-.086.17-.14.367-.16.587-.022.222-.033.467-.033.737 0 .3.024.59.075.875.05.285.153.538.312.758.157.22.383.398.68.534.293.136.678.203 1.152.203.458 0 .832-.067 1.12-.203.287-.135.514-.316.68-.544.164-.227.28-.487.344-.78.064-.29.098-.6.098-.928 0-.313-.036-.605-.108-.875-.07-.27-.194-.505-.367-.706-.17-.197-.4-.358-.687-.478s-.657-.18-1.102-.18zM114.7 57.147c-.827 0-1.475-.213-1.943-.64-.94.427-1.872.64-2.797.64-1.096 0-1.936-.27-2.52-.81-.583-.542-.875-1.26-.875-2.158 0-.612.135-1.136.406-1.57.27-.433.645-.786 1.12-1.056s1.04-.467 1.688-.587c.647-.12 1.35-.182 2.103-.182h.343c.057 0 .097-.007.117-.02.022-.015.032-.058.032-.13v-.703c0-1.338-.612-2.007-1.836-2.007-.413 0-.815.022-1.206.065-.392.043-.778.12-1.163.234-.186-.014-.35-.06-.49-.138-.144-.08-.214-.218-.214-.417 0-.17.057-.313.17-.427.113-.115.242-.206.385-.278.584-.27 1.422-.405 2.52-.405 1.365 0 2.38.306 3.04.917.663.613.993 1.487.993 2.626v5.422c0 .143.116.264.343.364.172.04.306.105.406.19.184.1.276.257.276.47-.03.23-.132.385-.31.47-.178.085-.374.127-.587.127zm-2.328-5.038c0-.07-.007-.11-.02-.118-.017-.007-.06-.012-.13-.012-.697.03-1.273.096-1.73.204-.455.107-.818.25-1.088.426-.27.18-.464.398-.577.663-.113.263-.17.55-.17.864 0 .2.027.395.085.587.056.192.16.363.31.512s.346.27.587.363c.24.092.547.137.917.137.54 0 1.067-.064 1.58-.19.156-.044.234-.123.234-.236v-3.2zM123.88 49.783c-.144.014-.253-.01-.33-.075-.08-.064-.133-.13-.16-.203-.03-.028-.052-.06-.065-.096-.014-.036-.036-.068-.063-.097-.014-.057-.057-.127-.13-.213l-.425-.555c-.215-.17-.44-.256-.684-.256-.47 0-1.054.32-1.75.96v6.34c0 .1.045.163.138.19.094.03.196.066.312.11.184.056.34.126.47.212.07.043.142.104.212.182.072.078.107.18.107.31 0 .198-.066.34-.202.425-.136.085-.295.127-.48.127h-3.33c-.17 0-.328-.042-.47-.128-.142-.085-.214-.228-.214-.427 0-.214.09-.366.268-.46.178-.09.353-.173.522-.244.115-.044.222-.08.32-.11.1-.027.15-.083.15-.17v-7.258c0-.085-.047-.124-.14-.117-.092.007-.182-.003-.266-.032-.186 0-.35-.02-.49-.064-.087-.03-.17-.08-.247-.15-.077-.072-.117-.178-.117-.32 0-.128.068-.25.204-.363.135-.114.306-.213.512-.3.205-.085.42-.152.64-.202.22-.05.416-.075.587-.075h.812c.198 0 .364.053.5.16.136.107.203.268.203.48v.32c.712-.71 1.51-1.067 2.392-1.067.2 0 .42.03.66.086.243.056.535.148.877.275l.234 2.178v.022c0 .014.004.024.01.032.008.007.012.018.012.03 0 .214-.067.357-.203.43-.138.07-.26.106-.376.106zM133.656 57.147c-.825 0-1.473-.213-1.942-.64-.938.427-1.87.64-2.797.64-1.096 0-1.936-.27-2.52-.81-.583-.542-.875-1.26-.875-2.158 0-.612.136-1.136.406-1.57.27-.433.645-.786 1.12-1.056.478-.27 1.04-.467 1.687-.587.647-.12 1.35-.182 2.104-.182h.34c.058 0 .097-.007.117-.02.022-.015.033-.058.033-.13v-.703c0-1.338-.613-2.007-1.836-2.007-.414 0-.815.022-1.207.065s-.778.12-1.163.234c-.185-.014-.35-.06-.49-.138-.143-.08-.214-.218-.214-.417 0-.17.057-.313.17-.427.114-.115.242-.206.385-.278.584-.27 1.423-.405 2.52-.405 1.365 0 2.38.306 3.04.917.664.613.994 1.487.994 2.626v5.422c0 .143.113.264.34.364.172.04.307.105.407.19.184.1.276.257.276.47-.028.23-.132.385-.31.47-.178.085-.374.127-.587.127zm-2.326-5.038c0-.07-.008-.11-.02-.118-.016-.007-.06-.012-.13-.012-.696.03-1.273.096-1.728.204-.455.107-.82.25-1.09.426-.27.18-.462.398-.576.663-.113.263-.17.55-.17.864 0 .2.028.395.086.587.056.192.16.363.31.512s.345.27.587.363c.24.092.547.137.916.137.54 0 1.068-.064 1.58-.19.156-.044.235-.123.235-.236v-3.2z"/></g><path fill="#010101" d="M77.993 39.462c-.074.545-.455.82-1.146.82h-8.51c-.728 0-1.092-.274-1.092-.82 0-.4.163-.69.49-.872s.7-.328 1.12-.437c.417-.11.79-.246 1.117-.41.328-.163.49-.445.49-.844V16.816c0-.29-.162-.527-.49-.71-.326-.18-.7-.344-1.117-.49-.42-.145-.79-.31-1.12-.49-.327-.183-.49-.438-.49-.765 0-.546.383-.818 1.146-.818h8.457c.728 0 1.09.272 1.09.818 0 .546-.525.98-1.58 1.31-1.092.182-1.638.618-1.638 1.308v19.863c0 .4.172.69.52.873.344.183.717.337 1.116.463.4.128.772.272 1.12.436.343.165.517.446.517.846z"/></svg>