<svg xmlns="http://www.w3.org/2000/svg" width="123.458" height="37.957" viewBox="0 0 123.458 37.957"><g fill-rule="evenodd" clip-rule="evenodd"><path fill="#F8BFD8" d="M7.976 27.02c0-.7.773-1.05 2.32-1.05 1.522 0 2.284.352 2.284 1.05 0 .702-.762 1.052-2.284 1.052-1.546 0-2.32-.35-2.32-1.05zM28.128 25.97c1.523 0 2.285.352 2.285 1.05 0 .702-.762 1.052-2.285 1.052-1.52 0-2.282-.35-2.282-1.05 0-.7.76-1.052 2.282-1.052z"/><path fill="#333" d="M32.81 17.062c0 .484-.17 2.15-.507 5.003-.338 2.996-.592 4.76-.76 5.292-.315 1.015-1.693 2.126-4.133 3.334-2.683 1.33-5.414 2.03-8.19 2.103l-.038-.036c-2.778-.072-5.51-.774-8.193-2.103-2.44-1.208-3.817-2.32-4.132-3.334-.168-.58-.435-2.392-.796-5.437-.363-2.996-.52-4.736-.472-5.22.193-3.383 1.583-6.234 4.168-8.553 2.585-2.32 5.727-3.48 9.424-3.48 3.77 0 6.984 1.22 9.64 3.662 2.66 2.416 3.987 5.34 3.987 8.77zm-3.62 6.603c0-1.83-1.485-3.316-3.317-3.316H12.518c-1.83 0-3.316 1.484-3.316 3.315 0 1.832 1.485 3.316 3.316 3.316h13.356c1.832 0 3.315-1.483 3.315-3.315z"/><path d="M13.277 24.312c0-1.208.348-1.812 1.05-1.812.7 0 1.05.604 1.05 1.812 0 1.232-.35 1.85-1.05 1.85-.702 0-1.05-.62-1.05-1.85zM23.75 24.312c0-1.208.35-1.812 1.05-1.812.726 0 1.09.604 1.09 1.812 0 1.232-.364 1.85-1.09 1.85-.7 0-1.05-.62-1.05-1.85z"/></g><circle stroke="#fff" stroke-miterlimit="10" cx="19.195" cy="18.712" r="16.138" fill="none"/><path fill="#010101" d="M62.18 34.85c5.307 0 10-2.572 12.94-6.524-.11-1.86.142-3.447.778-4.738.748-1.517.778-4.008.09-7.475-.652-3.388-1.636-5.998-2.956-7.83-1.242-1.713-3.19-2.885-5.85-3.516-2.562-.59-4.255-.394-5.082.59-1.34-.984-3.25-.964-5.732.06-2.56 1.104-4.56 2.73-5.997 4.875-2.028 3.014-2.55 6.688-1.565 11.02.67 2.958.857 5.72 1.337 8.12 2.956 3.318 7.247 5.418 12.04 5.418z"/><path fill-rule="evenodd" clip-rule="evenodd" fill="#fff" stroke="#010101" stroke-miterlimit="3" d="M69.398 33.066c-.374-.866-.815-1.452-2.43-2.062l-2.135-.65v-1.522h-5v1.62c-1 .142-1.304.363-2.116.67-1.773.65-2.163 1.112-2.478 2.038 0 0 6.234 3.39 14.158-.094z"/><path fill="#fff" stroke="#010101" stroke-width=".591" stroke-miterlimit="10" d="M75.63 19.51c.317.77.12 1.764-.59 2.985-.748 1.28-1.614 1.842-2.6 1.684l.592-4.905.118-.267 1.034-.266c.73-.058 1.212.197 1.447.77z"/><path fill-rule="evenodd" clip-rule="evenodd" fill="#fff" d="M73.268 17.147c0 .394-.137 1.753-.414 4.077-.275 2.443-.482 3.88-.62 4.314-.256.828-1.38 1.733-3.37 2.718-2.185 1.083-4.113 1.644-6.378 1.703-2.266-.06-4.818-.65-7.005-1.733-1.988-.985-3.11-1.89-3.367-2.718-.14-.474-.354-1.95-.65-4.432-.295-2.443-.423-3.86-.384-4.255.156-2.758 1.29-5.082 3.396-6.973 2.108-1.89 4.668-2.836 7.682-2.836 3.072 0 5.692.994 7.858 2.984 2.17 1.97 3.252 4.352 3.252 7.15z"/><path clip-rule="evenodd" stroke="#010101" stroke-width="1.182" stroke-miterlimit="3" d="M73.268 17.147c0-2.797-1.083-5.18-3.25-7.15-2.167-1.99-4.786-2.984-7.858-2.984-3.014 0-5.574.945-7.682 2.836-2.107 1.89-3.24 4.214-3.397 6.972-.038.394.09 1.812.385 4.255.295 2.48.51 3.958.65 4.43.256.828 1.38 1.734 3.368 2.72 2.187 1.082 4.412 1.653 6.678 1.712 2.265-.06 4.522-.602 6.708-1.685 1.99-.984 3.112-1.89 3.368-2.718.14-.433.345-1.87.62-4.314.274-2.323.412-3.682.412-4.076z" fill="none"/><path fill-rule="evenodd" clip-rule="evenodd" fill="#010101" d="M74.184 17.236c.197 1.24-.708 1.86-2.718 1.86-1.26 0-2.53-1.693-3.812-5.08l-1.537-5.083c.14.866-.363 1.625-1.506 2.274.67-1.477.552-2.403-.355-2.777-.57-.236-1.112-.246-1.624-.03l-.59.385c-1.005-.473-1.91-.52-2.72-.147-.825.394-1.485 1.32-1.978 2.777-.67 1.89-.778 4.186-.324 6.884-1.42-2.148-1.656-5.034-.71-8.657-.65.197-1.31.748-1.98 1.654-1.32 1.832-2.037 4.55-2.156 8.155-.118 3.604.276 6.54 1.182 8.804.454 1.143.917 1.92 1.388 2.334-.69-.433-1.408-1.202-2.156-2.304-1.478-2.187-2.325-4.895-2.542-8.125L53 9.14l4.668-2.63 5.082-.768 4.432 1.063 1.506 1.743 3.458 1.862 1.713 3.634 1.89 2.452c.434.768.336 3.033-.294 6.796l-1.45.517c.44-.342.813-.928 1.124-1.76.415-1.102.62-2.235.62-3.397 0-.708-.255-1.162-.768-1.358l-.798-.06zM56.87 23.056c0-.985.286-1.477.857-1.477.572 0 .857.49.857 1.476 0 1.004-.285 1.507-.857 1.507-.57 0-.856-.503-.856-1.507zM65.41 23.056c0-.985.285-1.477.856-1.477.59 0 .886.49.886 1.476 0 1.004-.295 1.507-.886 1.507-.572 0-.857-.503-.857-1.507z"/><path clip-rule="evenodd" stroke="#010101" stroke-width=".591" stroke-miterlimit="3" d="M64.02 26.72c0 .808-.62 1.212-1.86 1.212-1.26 0-1.89-.404-1.89-1.212" fill="none"/><path fill-rule="evenodd" clip-rule="evenodd" fill="#F8BFD8" d="M52.97 24.65c0-.57.63-.856 1.89-.856 1.242 0 1.863.287 1.863.857 0 .572-.622.858-1.862.858-1.26 0-1.89-.285-1.89-.857zM69.398 23.794c1.24 0 1.86.287 1.86.857 0 .572-.62.858-1.86.858-1.24 0-1.862-.286-1.862-.857 0-.57.62-.856 1.862-.856z"/><path fill="#fff" stroke="#000" stroke-miterlimit="10" d="M57.728 34.228c-.22-.452.333-.647-.052-3.105.886-.335.777-.32 1.605-.457 0 0 .46 3.42 3.156 3.386 2.695-.034 2.745-3.278 2.745-3.278l1.648.23c-.15 2.094.413 2.28.186 3.11"/><circle stroke="#fff" stroke-miterlimit="10" cx="62.181" cy="18.712" r="16.138" fill="none"/><path fill="#010101" d="M105.18 34.85c5.307 0 10-2.572 12.94-6.524-.11-1.86.142-3.447.778-4.738.748-1.517.778-4.008.09-7.475-.652-3.388-1.636-5.998-2.956-7.83-1.242-1.713-3.19-2.885-5.85-3.516-2.562-.59-4.255-.394-5.082.59-1.34-.984-3.25-.964-5.732.06-2.56 1.104-4.56 2.73-5.997 4.875-2.028 3.014-2.55 6.688-1.565 11.02.67 2.958.857 5.72 1.337 8.12 2.956 3.318 7.247 5.418 12.04 5.418z"/><path fill-rule="evenodd" clip-rule="evenodd" fill="#fff" stroke="#010101" stroke-miterlimit="3" d="M112.398 33.066c-.374-.866-.815-1.452-2.43-2.062l-2.135-.65v-1.522h-5v1.62c-1 .142-1.304.363-2.116.67-1.773.65-2.163 1.112-2.478 2.038 0 0 6.234 3.39 14.158-.094z"/><path fill="#fff" stroke="#010101" stroke-width=".591" stroke-miterlimit="10" d="M118.63 19.51c.317.77.12 1.764-.59 2.985-.748 1.28-1.614 1.842-2.6 1.684l.592-4.905.118-.267 1.034-.266c.73-.058 1.212.197 1.447.77z"/><path fill-rule="evenodd" clip-rule="evenodd" fill="#fff" d="M116.268 17.147c0 .394-.137 1.753-.414 4.077-.275 2.443-.482 3.88-.62 4.314-.256.828-1.38 1.733-3.37 2.718-2.185 1.083-4.113 1.644-6.378 1.703-2.266-.06-4.818-.65-7.005-1.733-1.988-.985-3.11-1.89-3.367-2.718-.14-.474-.354-1.95-.65-4.432-.295-2.443-.423-3.86-.384-4.255.156-2.758 1.29-5.082 3.396-6.973 2.108-1.89 4.668-2.836 7.682-2.836 3.072 0 5.692.994 7.858 2.984 2.17 1.97 3.252 4.352 3.252 7.15z"/><path clip-rule="evenodd" stroke="#010101" stroke-width="1.182" stroke-miterlimit="3" d="M116.268 17.147c0-2.797-1.083-5.18-3.25-7.15-2.167-1.99-4.786-2.984-7.858-2.984-3.014 0-5.574.945-7.682 2.836-2.107 1.89-3.24 4.214-3.397 6.972-.038.394.09 1.812.385 4.255.295 2.48.51 3.958.65 4.43.256.828 1.38 1.734 3.368 2.72 2.187 1.082 4.412 1.653 6.678 1.712 2.265-.06 4.522-.602 6.708-1.685 1.99-.984 3.112-1.89 3.368-2.718.14-.433.345-1.87.62-4.314.274-2.323.412-3.682.412-4.076z" fill="none"/><path fill-rule="evenodd" clip-rule="evenodd" fill="#010101" d="M117.184 17.236c.197 1.24-.708 1.86-2.718 1.86-1.26 0-2.53-1.693-3.812-5.08l-1.537-5.083c.14.866-.363 1.625-1.506 2.274.67-1.477.552-2.403-.355-2.777-.57-.236-1.112-.246-1.624-.03l-.59.385c-1.005-.473-1.91-.52-2.72-.147-.825.394-1.485 1.32-1.978 2.777-.67 1.89-.778 4.186-.324 6.884-1.42-2.148-1.656-5.034-.71-8.657-.65.197-1.31.748-1.98 1.654-1.32 1.832-2.037 4.55-2.156 8.155-.118 3.604.276 6.54 1.182 8.804.454 1.143.917 1.92 1.388 2.334-.69-.433-1.408-1.202-2.156-2.304-1.478-2.187-2.325-4.895-2.542-8.125L96 9.14l4.668-2.63 5.082-.768 4.432 1.063 1.506 1.743 3.458 1.862 1.713 3.634 1.89 2.452c.434.768.336 3.033-.294 6.796l-1.45.517c.44-.342.813-.928 1.124-1.76.415-1.102.62-2.235.62-3.397 0-.708-.255-1.162-.768-1.358l-.798-.06zM99.87 23.056c0-.985.286-1.477.857-1.477.572 0 .857.49.857 1.476 0 1.004-.285 1.507-.857 1.507-.57 0-.856-.503-.856-1.507zM108.41 23.056c0-.985.285-1.477.856-1.477.59 0 .886.49.886 1.476 0 1.004-.295 1.507-.886 1.507-.572 0-.857-.503-.857-1.507z"/><path clip-rule="evenodd" stroke="#010101" stroke-width=".591" stroke-miterlimit="3" d="M107.02 26.72c0 .808-.62 1.212-1.86 1.212-1.26 0-1.89-.404-1.89-1.212" fill="none"/><path fill-rule="evenodd" clip-rule="evenodd" fill="#F8BFD8" d="M95.97 24.65c0-.57.63-.856 1.89-.856 1.242 0 1.863.287 1.863.857 0 .572-.622.858-1.862.858-1.26 0-1.89-.285-1.89-.857zM112.398 23.794c1.24 0 1.86.287 1.86.857 0 .572-.62.858-1.86.858-1.24 0-1.862-.286-1.862-.857 0-.57.62-.856 1.862-.856z"/><path fill="#fff" stroke="#000" stroke-miterlimit="10" d="M100.728 34.228c-.22-.452.333-.647-.052-3.105.886-.335.777-.32 1.605-.457 0 0 .46 3.42 3.156 3.386 2.695-.034 2.745-3.278 2.745-3.278l1.648.23c-.15 2.094.413 2.28.186 3.11"/><circle stroke="#fff" stroke-miterlimit="10" cx="105.181" cy="18.712" r="16.138" fill="none"/><path fill="#9AC23C" d="M99.5 14.883l1.913 3.876 4.277.62-3.095 3.016.73 4.26-3.825-2.01-3.825 2.01.73-4.26-3.094-3.016 4.277-.62z"/><radialGradient id="a" cx="99.501" cy="20.77" r="4.781" gradientUnits="userSpaceOnUse"><stop offset="0" stop-color="#333"/><stop offset="1"/></radialGradient><path fill="url(#a)" d="M99.5 16.11l1.514 3.068 3.386.49-2.45 2.39.58 3.37-3.03-1.59-3.028 1.59.578-3.37-2.448-2.39 3.384-.49z"/><path fill="#9AC23C" d="M110.79 14.883l1.912 3.876 4.277.62-3.096 3.016.73 4.26-3.825-2.01-3.826 2.01.73-4.26-3.094-3.016 4.276-.62z"/><radialGradient id="b" cx="110.789" cy="20.77" r="4.781" gradientUnits="userSpaceOnUse"><stop offset="0" stop-color="#333"/><stop offset="1"/></radialGradient><path fill="url(#b)" d="M110.79 16.11l1.513 3.068 3.385.49-2.45 2.39.58 3.37-3.03-1.59-3.028 1.59.58-3.37-2.45-2.39 3.385-.49z"/></svg>